<svg version="1.1" id="Layer_1" xmlns="http://www.w3.org/2000/svg" xmlns:xlink="http://www.w3.org/1999/xlink" x="0px" y="0px"
	 width="100%" viewBox="0 0 1024 1024" enable-background="new 0 0 1024 1024" xml:space="preserve">
<path fill="#000000" opacity="1.000000" stroke="none" 
	d="
M364.930603,568.390503 
	C373.852386,571.655640 382.673767,572.259216 392.572571,571.386047 
	C388.616425,564.822998 383.049103,560.183105 379.050140,552.833069 
	C386.788239,553.744019 393.758453,554.478638 402.029236,550.681519 
	C389.467712,544.195190 380.529175,535.754395 373.678894,524.723022 
	C376.192047,523.151428 378.201141,523.858521 380.270905,524.356506 
	C382.666046,524.932800 385.003204,525.823486 387.615234,525.087830 
	C389.854828,524.457092 392.359314,524.497253 393.039276,521.559021 
	C393.741699,518.523804 391.106079,517.828308 389.394287,516.945312 
	C380.670013,512.444885 375.025452,505.256927 370.948425,496.599976 
	C370.538940,495.730469 369.747253,494.943146 370.382477,493.694000 
	C373.219177,492.896515 375.735199,494.768311 378.490936,495.037170 
	C380.723938,495.255035 383.107391,495.824921 384.220459,493.435669 
	C385.358856,490.992004 382.925995,489.921051 381.410065,488.808563 
	C376.351715,485.096436 372.397736,480.433929 369.152161,475.121826 
	C368.297302,473.722656 367.176666,472.370514 368.090302,470.248199 
	C368.558289,470.179047 369.214508,469.901093 369.774933,470.032257 
	C371.644318,470.469788 373.545685,470.780029 374.758881,468.952026 
	C376.011383,467.064697 374.661835,465.325195 373.661743,463.926086 
	C367.293488,455.016815 362.475708,445.435242 360.197693,434.646637 
	C359.944824,433.449005 359.559998,431.854431 357.779968,431.901978 
	C356.162750,431.945190 354.821198,432.652100 354.437683,434.367981 
	C351.959137,445.456696 346.905029,455.291931 340.097809,464.313812 
	C339.222382,465.474030 338.685333,466.958710 339.085815,468.737457 
	C340.802948,470.609283 343.887482,469.584534 345.872437,471.535095 
	C344.534149,482.061188 334.779480,485.997467 327.769623,492.953674 
	C333.869598,496.339050 339.349976,494.012177 345.110687,494.294830 
	C340.626587,507.543976 329.683838,514.338501 318.839294,521.695190 
	C325.979767,527.331421 333.092560,522.036499 340.014587,524.405823 
	C337.129669,529.466858 333.559448,533.444946 329.112457,536.672180 
	C328.061462,537.434875 326.942108,537.090759 325.792175,536.643555 
	C321.212860,534.862671 310.811554,524.164795 308.799591,519.044434 
	C309.838501,517.173035 311.685760,517.800842 313.248779,517.726379 
	C315.575378,517.615417 317.873627,517.641846 320.152496,516.886780 
	C328.798218,514.022339 331.022125,506.893768 325.206360,499.832550 
	C321.365662,495.169403 316.378723,491.765167 311.569733,488.164917 
	C306.980408,484.729126 302.223602,481.374146 298.979401,475.983337 
	C301.671844,474.164154 304.318359,474.072845 306.871582,473.668549 
	C310.910309,473.028992 314.745026,472.124237 316.474182,467.681488 
	C318.373260,462.802094 316.742279,458.928528 313.293518,455.488007 
	C306.571198,448.781891 299.834747,442.089813 293.139618,435.356689 
	C292.021851,434.232605 290.139618,433.268616 290.917908,431.294525 
	C291.554962,429.678711 293.360931,429.894653 294.827393,429.626831 
	C296.619385,429.299530 298.441956,428.938507 300.130310,428.281250 
	C306.095154,425.959229 307.330902,421.599457 303.401184,416.528229 
	C301.056641,413.502625 298.563843,410.570709 295.923035,407.801361 
	C292.857391,404.586609 293.402252,401.966248 296.751251,399.511169 
	C297.960632,398.624603 299.267517,397.845734 300.368073,396.840546 
	C304.305511,393.244354 308.267303,389.740692 306.774200,383.390015 
	C306.076172,380.421021 307.418549,377.491791 308.400635,374.653107 
	C311.502228,365.687897 314.289093,356.597717 317.791595,347.792114 
	C320.880066,340.027618 322.064148,332.160675 321.745789,323.884979 
	C321.500122,317.499634 320.595978,316.244171 314.136810,315.395752 
	C305.392273,314.247131 304.544159,313.435242 304.708008,304.466766 
	C304.834229,297.558441 303.355316,290.411102 307.248840,283.932434 
	C307.884705,282.874359 307.291656,281.694092 307.084503,280.542908 
	C306.400909,276.744415 306.294800,272.953186 307.599274,269.212067 
	C310.523956,260.824341 318.437927,258.208954 325.453857,263.562866 
	C328.081512,265.568024 330.612305,267.216797 334.050842,266.630554 
	C337.727509,266.003754 339.368195,263.079010 337.960602,259.671295 
	C337.836090,259.369873 337.545197,259.138336 337.414246,258.838257 
	C334.396210,251.922699 335.111328,245.863693 339.286987,242.867661 
	C344.045288,239.453613 350.881439,240.958572 356.846863,244.283203 
	C362.129120,247.227112 366.558228,248.310089 358.140839,252.779083 
	C357.374023,253.186188 358.267456,256.219208 357.863831,257.906982 
	C356.721039,262.685364 354.491852,265.027069 348.751709,268.143463 
	C348.036926,269.597900 348.915161,270.728088 349.649231,271.796387 
	C353.517761,277.426514 357.630951,282.898834 361.281403,288.665100 
	C364.104401,293.124359 367.589355,290.836212 371.017487,290.314545 
	C374.393951,289.800781 373.976990,287.512054 373.734619,285.078094 
	C373.510223,282.824799 374.507202,281.125305 376.942780,280.813965 
	C379.195007,280.526001 381.076691,281.268860 381.247925,283.802460 
	C381.414307,286.264465 383.377441,287.851318 383.828949,290.185669 
	C384.317719,292.712372 384.974884,295.371979 383.229980,297.369568 
	C380.294128,300.730499 380.224274,304.552704 380.293213,308.602448 
	C380.650452,329.592102 380.996185,350.582367 381.190613,371.573883 
	C381.221191,374.871826 382.158112,376.963165 385.453186,377.890076 
	C387.040741,378.336700 388.519928,379.176239 390.038269,379.859863 
	C399.115906,383.947052 400.447937,383.787445 407.580353,376.567932 
	C413.551727,370.523499 419.953003,364.756989 425.036804,358.017242 
	C432.421356,348.227417 442.136749,344.288513 453.794312,343.716919 
	C459.710876,343.426819 464.527435,341.187653 468.812775,336.929779 
	C477.439484,328.358429 486.382843,320.105865 494.284729,310.830994 
	C496.267792,308.503387 498.615967,306.766693 501.423340,305.515503 
	C508.587769,302.322418 510.173157,303.000946 514.197388,309.677155 
	C519.308838,318.157135 527.258789,323.916107 534.720947,331.464325 
	C536.301392,326.056000 535.558411,321.931244 535.555054,317.863037 
	C535.553467,315.966644 534.074402,315.492279 532.521790,315.145050 
	C528.094788,314.154968 526.472961,310.837341 525.751831,306.823608 
	C524.529358,300.018799 524.924683,293.189178 525.828979,286.415405 
	C526.671326,280.105072 531.439575,276.378448 539.018921,275.739349 
	C547.638062,275.012604 556.258057,274.198700 564.895020,273.824982 
	C568.451355,273.671112 570.401794,272.222870 571.719666,269.152466 
	C574.412842,262.877991 577.338135,256.701569 579.955811,250.396759 
	C582.066589,245.312637 585.920044,243.169418 591.156799,242.638077 
	C605.887817,241.143433 620.626038,239.818527 635.444580,239.612274 
	C636.696777,239.594849 638.168518,240.032562 639.077271,238.512833 
	C638.442871,235.644196 636.066223,236.308502 634.264832,236.405731 
	C625.296997,236.889893 616.339478,237.561188 607.374634,238.105682 
	C604.718079,238.267014 602.049377,238.276047 599.386536,238.268570 
	C597.479736,238.263214 596.196106,237.262878 595.879089,235.369781 
	C595.544067,233.369629 596.227844,231.656342 598.174622,230.865540 
	C599.539124,230.311279 601.047485,229.925125 602.513977,229.837280 
	C615.138611,229.081116 627.764099,228.313202 640.398254,227.749146 
	C648.174561,227.401978 655.364197,230.609726 662.841736,232.065613 
	C673.596375,234.159561 684.104980,237.414764 694.932556,239.291962 
	C701.054382,240.353333 705.207214,243.935745 706.085876,250.346954 
	C706.475464,253.189835 708.483704,253.780914 710.520630,254.357956 
	C714.647583,255.527054 716.680237,257.984955 717.594360,262.334442 
	C719.882080,273.219238 721.700317,284.214172 724.893372,294.914764 
	C725.722168,297.691956 725.229187,300.863708 725.342163,303.854309 
	C725.579407,310.132538 724.775696,316.422241 726.990417,322.639160 
	C727.978455,325.412598 728.552856,329.550018 725.468079,331.413818 
	C721.996033,333.511536 717.678772,332.566406 713.779297,331.861908 
	C712.062744,331.551758 712.211975,329.498077 712.098022,328.040527 
	C711.753357,323.629822 710.441467,319.567993 708.008179,315.862274 
	C700.815430,304.908295 686.451721,304.363281 678.482788,314.757172 
	C674.527527,319.915894 672.232422,325.720673 671.835510,332.226135 
	C671.593201,336.196899 670.098999,337.716675 665.772217,336.680023 
	C661.274902,335.602570 656.555786,335.394501 651.918518,334.974304 
	C648.068176,334.625458 646.431274,332.869446 646.607300,328.847137 
	C646.959473,320.799255 645.067627,313.335907 639.802246,306.962219 
	C631.784912,297.257324 618.466370,296.399872 609.361877,305.111481 
	C603.742249,310.488647 600.517639,317.201416 599.397400,324.813232 
	C598.719971,329.416229 597.179321,331.982330 591.943359,330.522369 
	C589.902405,329.953247 587.606079,330.369019 585.492920,329.976471 
	C580.479065,329.045135 575.537292,327.765594 574.159363,335.082153 
	C573.912231,336.394562 572.447083,337.477600 571.404846,338.850067 
	C572.548340,340.222992 574.341797,340.433319 575.787842,340.449921 
	C584.032166,340.544464 591.826294,343.164917 599.849182,344.464111 
	C605.158752,345.323944 606.540405,343.700439 605.993408,338.352448 
	C605.086426,329.485992 605.006653,320.738586 610.781982,313.006775 
	C615.088623,307.241150 620.317200,303.449615 627.742065,304.809692 
	C634.719238,306.087830 639.177795,310.837555 641.487427,317.330963 
	C644.524048,325.867950 645.210938,334.519592 641.274414,343.071655 
	C640.719116,344.278137 640.274231,345.537750 639.829590,346.791016 
	C639.730957,347.069092 639.850403,347.424561 639.881653,347.950287 
	C647.890808,350.286774 656.342834,349.052002 664.472107,350.611084 
	C666.913635,351.079285 669.399048,351.314453 671.847473,351.750916 
	C677.650452,352.785370 678.668030,351.874420 677.492554,345.985168 
	C676.368408,340.353210 676.178040,334.786377 677.550415,329.187683 
	C680.311218,317.925110 687.123169,311.613586 695.548462,312.536865 
	C703.577698,313.416748 710.793213,323.018066 711.382507,333.118317 
	C711.861145,341.322144 710.074219,348.950592 705.791382,356.864807 
	C714.001648,358.389191 719.958557,363.145172 726.118042,367.534424 
	C727.877625,368.788239 729.579895,370.140594 731.192688,371.577728 
	C733.281921,373.439392 733.696167,375.573212 732.572510,378.315002 
	C730.122986,384.292084 731.119019,387.834625 736.643494,391.562927 
	C740.496765,394.163422 740.526550,396.062042 737.147156,399.204346 
	C732.283997,403.726196 727.804077,408.677246 723.351562,413.617157 
	C720.681946,416.578918 718.941895,420.223999 720.691223,424.170624 
	C722.383789,427.989136 726.156616,428.662201 729.979614,428.808563 
	C731.969543,428.884735 733.929138,429.188751 735.831604,430.475464 
	C734.391663,435.170319 731.351685,438.712128 728.065552,441.966217 
	C723.926270,446.065186 719.531189,449.909485 715.183533,453.793304 
	C711.272217,457.287292 709.129272,461.482758 710.744263,466.683685 
	C712.330200,471.791138 716.980530,472.656830 721.494995,473.486023 
	C723.255371,473.809357 725.193115,473.218140 726.775391,474.460541 
	C725.731567,482.217072 716.580566,487.027100 710.196777,483.290405 
	C699.889465,477.257080 691.968750,468.864136 685.702759,458.811554 
	C684.762207,457.302673 683.396606,455.865326 684.341309,453.187500 
	C690.402527,453.517395 696.167053,458.145081 703.739868,455.618103 
	C693.325378,445.878540 684.882568,435.468842 678.079529,422.677368 
	C683.015686,422.966736 686.849792,424.842316 690.701111,423.105316 
	C691.632202,421.590485 690.544617,420.576141 689.751099,419.570770 
	C681.569214,409.204010 676.655151,397.226227 672.559326,384.840332 
	C672.350220,384.207947 672.126160,383.579407 671.880005,382.960693 
	C671.225098,381.315155 671.116028,378.895294 668.886597,378.847809 
	C666.346924,378.793762 665.954041,381.358795 665.509705,383.187531 
	C662.681763,394.825226 657.532593,405.382690 651.073181,415.390533 
	C649.731567,417.469086 646.898560,419.715485 649.343384,422.413544 
	C651.347717,424.625549 654.237366,423.881165 656.816223,422.833313 
	C657.417847,422.588898 658.060242,422.444794 659.921570,421.876953 
	C654.577332,435.046539 646.846741,445.222260 636.399170,453.743561 
	C639.714539,457.179108 642.952698,454.954346 645.998596,454.572754 
	C649.057983,454.189484 651.852234,452.298798 655.023804,452.626068 
	C655.998901,454.772400 654.690735,456.089447 653.873108,457.431213 
	C647.910828,467.215973 640.459534,475.650787 631.080322,482.317902 
	C629.999939,483.085815 628.948547,483.917816 627.996277,484.836700 
	C626.737671,486.051208 625.916626,487.538361 626.627625,489.325256 
	C627.332031,491.095612 628.922424,491.604797 630.677368,491.729431 
	C635.995239,492.107025 641.241577,491.415710 646.258972,490.224152 
	C647.966553,492.663086 646.368652,494.097809 645.480530,495.537201 
	C640.874023,503.004150 634.851013,509.171234 627.834778,514.394104 
	C625.029724,516.482117 622.166077,518.493774 619.408630,520.642151 
	C618.070984,521.684326 616.934265,523.021606 617.493286,524.924927 
	C618.042053,526.792969 619.659485,527.294006 621.356506,527.595581 
	C626.617554,528.530640 631.877808,529.267578 637.218750,528.127808 
	C638.136169,527.932007 639.131287,528.100098 640.902710,528.100098 
	C635.566345,538.172241 627.026489,544.147705 618.023438,550.712769 
	C622.947021,556.273254 627.656555,561.515259 633.274292,565.891235 
	C635.195618,567.387817 637.169861,566.186890 638.984131,565.566101 
	C646.351074,563.045105 653.671570,560.388123 661.394165,557.644470 
	C662.976501,561.198608 662.474976,564.482666 661.950317,567.661743 
	C661.518127,570.280457 662.411133,571.470459 664.947021,571.628235 
	C665.778381,571.679932 666.612000,571.696411 667.444275,571.734924 
	C676.187073,572.139526 676.161987,572.140869 675.809753,563.574097 
	C675.736328,561.788513 675.306763,559.910522 676.430603,558.306335 
	C677.876038,557.478027 679.107117,558.235657 680.287048,558.753540 
	C690.846680,563.388184 701.929504,566.444946 713.082764,569.108154 
	C725.473755,572.067017 738.251526,570.773743 750.842712,571.614441 
	C753.104126,571.765320 754.399475,570.297546 754.439758,568.284973 
	C754.582092,561.175354 754.495178,554.061096 754.495178,547.149170 
	C751.874634,545.905701 750.102966,547.208557 748.330750,547.913879 
	C732.803345,554.093994 716.527039,556.002136 700.001587,556.400818 
	C696.640930,556.481934 692.891235,556.170410 691.903625,552.109680 
	C690.886902,547.929199 694.052429,545.528015 697.135376,543.900146 
	C708.439758,537.931396 716.898438,528.757446 725.354492,519.541870 
	C725.917603,518.928345 726.526550,518.332031 726.965332,517.634094 
	C728.153015,515.745117 730.695496,514.006653 729.158875,511.527039 
	C727.789062,509.316742 725.240601,510.530426 723.155334,510.767242 
	C719.189819,511.217468 715.235291,511.897552 711.258240,512.072021 
	C708.058960,512.212341 704.632690,511.809021 703.394104,508.125427 
	C702.148987,504.422333 704.583252,502.021729 707.342468,500.324432 
	C719.493347,492.849915 728.423828,482.047028 737.570190,471.454926 
	C738.328979,470.576233 739.003723,469.610657 739.608521,468.618988 
	C739.934326,468.084778 740.028503,467.409332 740.344666,466.435760 
	C736.106812,464.085480 732.120300,466.656738 728.175903,466.762970 
	C725.888123,466.824585 723.567871,467.495605 721.241150,467.203094 
	C719.065247,466.929596 716.862305,466.405579 715.996460,464.019440 
	C715.122620,461.611450 716.420715,459.772278 718.072449,458.280579 
	C722.276123,454.484131 726.637451,450.861511 730.819824,447.042450 
	C738.050049,440.440338 743.200378,432.355103 747.554260,423.671021 
	C745.630371,421.682434 743.630981,422.358704 741.768555,422.761139 
	C737.641052,423.652893 733.470093,423.290436 729.315002,423.371704 
	C727.596252,423.405334 725.867859,423.152130 725.115784,421.324890 
	C724.232666,419.179352 725.638184,417.798950 727.162781,416.724121 
	C733.869263,411.996002 740.130737,406.827820 744.894104,400.027924 
	C748.396667,395.027924 751.964783,390.081970 754.080627,383.690765 
	C749.159363,384.525940 744.818970,385.787048 740.298828,385.348877 
	C738.388611,385.163727 736.577209,384.787354 735.722412,382.889587 
	C734.730469,380.687164 736.425049,379.490631 737.835449,378.348846 
	C749.801636,368.661530 757.234802,356.209930 760.969299,341.331085 
	C761.760376,338.179688 761.875061,333.267700 766.265503,333.301056 
	C770.229004,333.331177 770.385864,337.967010 771.340881,341.019928 
	C775.729370,355.049591 781.518799,368.188721 793.648315,377.460968 
	C794.950500,378.456421 795.739380,379.698364 795.344666,381.328125 
	C794.874756,383.268646 793.090576,383.662933 791.487549,384.038483 
	C786.867371,385.120850 782.693726,382.801422 777.432190,381.956726 
	C782.070190,390.955597 786.235657,399.481140 793.801880,405.763245 
	C797.391235,408.743408 800.972778,411.734833 804.626221,414.635010 
	C806.796204,416.357574 807.999207,418.491211 807.109192,421.158264 
	C806.099243,424.184601 803.152405,424.057861 800.782593,423.897675 
	C795.843933,423.563934 790.936157,422.773407 785.206299,422.071411 
	C791.495483,433.427643 797.827454,443.843353 808.632874,450.708466 
	C811.442993,452.493927 814.226929,454.332153 816.917419,456.290924 
	C819.266174,458.000824 821.498535,460.144135 820.590820,463.327850 
	C819.679565,466.523621 816.669983,467.198608 813.746582,467.315979 
	C808.255371,467.536469 802.754883,467.687500 797.365234,466.207611 
	C795.840027,465.788849 794.005188,464.562805 792.859802,466.507599 
	C791.793762,468.317688 793.517151,469.638245 794.529419,470.827972 
	C803.628784,481.522858 813.217285,491.650604 825.872314,498.338318 
	C829.038940,500.011780 833.035583,501.830139 832.011719,506.380737 
	C830.990967,510.917267 826.465088,510.800964 822.989807,511.124817 
	C816.067688,511.769867 809.096008,511.525879 800.872864,510.579468 
	C808.653809,520.231018 815.760010,528.928101 824.730896,535.840515 
	C828.806702,538.981140 833.307068,541.591064 837.724426,544.260315 
	C840.049927,545.665588 841.696228,547.173889 841.269287,550.178528 
	C840.830078,553.269775 838.256836,553.528992 836.099304,554.052673 
	C818.224487,558.391479 801.133057,554.746460 784.282959,548.798645 
	C782.284241,548.093140 780.430481,546.799377 777.836914,547.151489 
	C776.285706,554.268799 778.276917,561.281677 778.657288,568.317261 
	C778.781067,570.607056 781.067688,570.733337 782.904480,570.982117 
	C792.031860,572.218445 801.212585,571.454163 810.366333,571.699890 
	C813.210266,571.776245 816.039429,571.814819 818.730957,572.867310 
	C821.353394,573.892822 822.699280,575.955017 822.739014,578.657654 
	C822.779602,581.423645 821.255676,583.320068 818.674438,584.369812 
	C815.794861,585.540894 812.770630,585.291077 809.785095,585.287842 
	C745.789001,585.218689 681.792969,585.073608 617.796875,585.065735 
	C578.968201,585.060913 540.125061,584.654175 501.315704,585.576599 
	C473.650574,586.234192 445.995422,586.706421 418.353699,586.021973 
	C351.201935,584.359253 284.048004,585.699341 216.897247,585.275513 
	C214.072922,585.257690 211.232391,585.437683 208.490753,584.429077 
	C205.829849,583.450134 204.438522,581.623901 204.456757,578.782043 
	C204.474686,575.988586 205.747955,573.886292 208.384644,572.996155 
	C211.226776,572.036743 214.203491,571.630737 217.240387,571.695679 
	C226.076736,571.884644 234.887009,571.348328 243.703812,570.813354 
	C246.932053,570.617432 248.515076,569.601990 248.826462,566.191956 
	C249.220276,561.879150 249.774750,557.596252 249.666763,553.246582 
	C249.513336,547.067322 248.857529,546.554810 242.868103,548.689026 
	C233.592743,551.994080 224.101044,554.228210 214.334930,555.657593 
	C205.867172,556.897034 197.753754,555.489868 189.586105,553.935486 
	C187.482224,553.535095 185.323059,552.780762 184.878983,550.117676 
	C184.408234,547.294678 186.056290,545.827698 188.267792,544.648315 
	C201.590378,537.543152 212.214340,527.328735 221.569611,515.663635 
	C222.385117,514.646851 223.113281,513.559937 224.119568,512.179810 
	C220.784286,510.955017 217.680161,511.414886 214.633240,511.444366 
	C209.634262,511.492706 204.628677,511.652679 199.755615,510.242340 
	C197.637283,509.629242 195.488571,508.840942 194.922012,506.408630 
	C194.306839,503.767670 195.875549,501.927917 197.828217,500.501984 
	C200.516525,498.538940 203.193802,496.509125 206.090363,494.892242 
	C216.530594,489.064545 224.067917,480.161957 231.524063,471.175262 
	C232.602570,469.875366 234.214767,468.498840 233.098328,465.938568 
	C227.799225,465.880371 222.537994,467.869476 217.087418,467.406250 
	C213.010086,467.059814 207.822174,468.173248 206.349426,463.211060 
	C204.780594,457.925049 209.812164,455.846313 213.434479,453.698578 
	C224.202667,447.313965 232.358902,438.556183 238.038925,427.447510 
	C238.702362,426.149994 239.732544,424.932159 239.247955,422.948303 
	C237.117004,421.395477 234.627838,422.479004 232.260223,422.632080 
	C229.776978,422.792694 227.309952,423.295135 224.828262,423.360474 
	C222.768890,423.414673 219.988052,424.141479 219.214188,421.448090 
	C218.514938,419.014526 219.340698,416.513397 221.487564,414.740173 
	C226.750259,410.393311 232.172699,406.251709 236.919449,401.285370 
	C240.796478,397.229004 243.348083,392.401245 245.897537,387.533081 
	C247.484543,384.502655 246.450317,383.207092 243.100998,383.316223 
	C240.113525,383.413544 237.115601,383.396240 234.130005,383.260437 
	C232.590973,383.190399 231.142563,382.550446 230.640915,380.892731 
	C230.149094,379.267426 230.833313,377.834534 232.109253,376.922882 
	C245.311432,367.490417 250.140289,353.079132 255.135666,338.697876 
	C256.049408,336.067322 256.357727,331.921509 260.118011,332.064545 
	C263.788055,332.204163 264.090942,336.269379 264.702576,338.990204 
	C268.177216,354.446960 275.576721,367.501282 287.547821,377.946533 
	C289.046295,379.253967 290.624695,380.974854 289.471558,383.124847 
	C288.392212,385.137238 286.114197,385.155975 284.123505,384.890625 
	C280.373199,384.390747 276.651703,383.674500 272.480377,382.974731 
	C272.747498,386.095886 274.306183,388.264923 275.519501,390.518616 
	C280.778809,400.287628 286.908447,409.346039 296.419312,415.585510 
	C297.246704,416.128296 297.975830,416.841431 298.681641,417.544678 
	C300.036804,418.894775 301.086945,420.431763 300.236603,422.434753 
	C299.443634,424.302673 297.684570,424.420746 295.987000,424.321899 
	C293.334503,424.167450 290.688812,423.893219 288.041168,423.659637 
	C285.433960,423.429657 282.810028,422.828369 280.276489,423.900452 
	C279.646576,425.873962 280.673767,427.240662 281.579041,428.620392 
	C288.944122,439.845764 297.453949,450.022766 308.426453,457.950745 
	C310.974762,459.791992 313.331726,462.082642 311.860748,465.433014 
	C310.505707,468.519287 307.207489,468.311859 304.390930,468.085327 
	C298.639191,467.622711 292.904999,466.942108 287.163605,466.351318 
	C286.498596,468.972900 287.937714,470.359131 289.023773,471.682648 
	C297.787872,482.363159 306.130463,493.482239 318.777008,500.141693 
	C321.704010,501.682983 324.035187,504.072144 323.078003,507.781769 
	C322.096619,511.585114 318.766418,511.231232 315.743011,511.403625 
	C308.650391,511.808044 301.647034,509.347656 293.864288,510.635071 
	C296.878784,516.633484 301.369751,520.824524 305.653961,525.138184 
	C313.547211,533.085938 322.159088,540.122620 332.023376,545.550842 
	C334.194702,546.745728 336.620575,548.073486 335.964691,551.216736 
	C335.325562,554.279907 332.533905,554.539307 330.156982,555.152100 
	C314.331024,559.232117 299.340240,554.569153 284.294037,550.661011 
	C280.294159,549.622070 276.622772,547.453613 272.213989,546.995544 
	C270.090790,551.624451 272.194611,556.174438 272.326294,560.696228 
	C272.645660,571.660217 272.696564,571.375488 283.735565,570.954102 
	C298.216034,570.401306 312.716827,570.401184 327.206543,570.062256 
	C334.956940,569.881042 342.892242,571.247742 350.015167,567.183228 
	C353.760895,573.050232 358.055023,573.270081 364.930603,568.390503 
M533.377747,460.027985 
	C527.179077,449.274872 522.653381,437.914429 520.435181,425.639465 
	C520.001465,423.239166 520.023926,420.272369 517.390747,418.807800 
	C514.869812,419.627075 514.480591,421.730682 513.783325,423.544373 
	C511.215912,430.222870 508.934723,437.021942 506.103699,443.584900 
	C504.181610,448.040741 504.378418,452.073761 505.927246,456.577301 
	C509.824890,467.910553 513.858765,479.191833 518.499573,490.233765 
	C529.466125,516.326477 540.228516,542.520935 555.827148,566.365234 
	C558.266418,570.093994 560.811279,571.892090 565.475037,571.761780 
	C577.794739,571.417786 590.130066,571.644836 602.459167,571.617065 
	C604.734985,571.611938 607.133667,571.919739 609.508484,569.248047 
	C581.326843,535.166077 554.154968,500.242889 533.377747,460.027985 
M451.030487,394.451904 
	C443.827118,407.011963 436.910431,419.726624 430.807343,432.861450 
	C429.764679,435.105499 428.030975,437.582092 430.486786,440.462494 
	C432.694061,440.047058 434.282532,438.618134 435.950745,437.287811 
	C451.458313,424.921204 465.843811,411.289032 480.221649,397.670563 
	C487.696411,390.590576 495.359375,383.675232 501.933289,375.643188 
	C504.978546,371.922485 504.598114,369.281464 501.398407,366.314911 
	C496.300446,361.588409 495.352600,356.019836 497.602997,349.498474 
	C499.169739,344.958160 500.336273,340.246246 501.259125,335.528381 
	C501.929382,332.102020 503.718658,328.623352 502.013611,324.920715 
	C499.385620,325.126312 498.148193,327.061401 496.640015,328.499481 
	C488.088623,336.653412 479.718811,345.003540 471.008209,352.982300 
	C466.816010,356.822235 461.963715,360.047638 455.769287,359.140747 
	C447.397827,357.915192 441.931671,362.491211 436.913788,368.151154 
	C421.344238,385.712952 405.751984,403.254669 390.224213,420.853302 
	C388.871368,422.386597 386.918182,423.691620 386.961700,426.195282 
	C389.509125,427.343781 391.644806,426.279114 393.612030,425.075897 
	C399.144958,421.691681 404.727875,418.363678 410.052032,414.669006 
	C421.396820,406.796417 432.112488,398.015320 444.028442,390.971863 
	C446.763977,389.354889 449.491302,387.118439 453.078339,388.092255 
	C453.855957,390.600677 452.259399,392.092285 451.030487,394.451904 
M486.789062,482.206940 
	C468.858154,514.398926 448.051697,544.486267 421.276947,569.629822 
	C422.640656,571.738953 423.680725,571.708130 424.671448,571.694214 
	C440.494415,571.471863 456.316803,571.209412 472.140167,571.025635 
	C474.803864,570.994629 476.479370,569.723267 477.751068,567.552551 
	C481.202850,561.660461 484.868561,555.886597 488.132507,549.893188 
	C494.345459,538.484741 500.594574,527.059937 504.623901,514.643982 
	C506.093506,510.115479 507.575867,505.526184 505.818756,500.523407 
	C502.954529,492.368408 500.473083,484.079254 497.810913,475.852905 
	C497.074097,473.576080 496.884644,471.036102 494.968475,469.011139 
	C491.404968,472.902405 489.784912,477.553589 486.789062,482.206940 
M374.659058,306.297302 
	C375.038025,302.161133 372.390015,303.259003 370.119965,303.658447 
	C363.333893,304.852570 356.364014,307.188080 351.399170,300.490356 
	C345.945801,308.240692 347.730316,314.915039 353.335693,321.357727 
	C355.827637,324.221893 357.586609,327.714325 359.777435,330.852325 
	C362.389008,334.592865 363.269104,338.857788 362.832489,343.191895 
	C362.211945,349.351501 362.417053,355.496826 362.349030,361.649261 
	C362.284729,367.465973 367.928558,373.268951 374.663361,373.908325 
	C374.663361,351.617310 374.663361,329.372406 374.659058,306.297302 
M623.986389,251.422180 
	C618.010803,251.748871 612.033325,252.045609 606.059937,252.407837 
	C587.372681,253.541031 587.373230,253.550583 581.345215,267.089630 
	C579.168152,271.979340 580.070435,273.581757 585.264221,273.612518 
	C596.576050,273.679565 607.889038,273.580780 619.200317,273.683807 
	C622.121338,273.710419 623.924011,272.777924 624.657166,269.820038 
	C625.853821,264.991852 627.221130,260.206146 628.485046,255.394272 
	C629.344971,252.120346 627.638489,251.200363 623.986389,251.422180 
M348.419006,352.052704 
	C349.415833,343.283752 345.138733,337.387177 337.767883,332.548401 
	C337.393097,339.890320 334.635773,346.117249 332.072510,352.397186 
	C329.182251,359.478363 326.297607,366.563446 323.265594,373.584290 
	C322.359467,375.682495 322.808838,376.950378 324.049896,378.901459 
	C326.815704,383.249664 329.924530,383.931244 334.480469,382.006714 
	C337.820496,380.595825 341.455841,379.842987 345.003845,378.978790 
	C347.762238,378.306946 348.734863,376.691956 348.678955,373.942719 
	C348.536926,366.954712 348.563049,359.963287 348.419006,352.052704 
M652.451721,254.291229 
	C649.327209,253.857086 646.190857,253.492371 643.082153,252.964905 
	C640.925720,252.599014 639.570190,253.084274 639.104431,255.449585 
	C638.079590,260.653564 636.925293,265.831909 635.849915,271.026123 
	C635.477966,272.823120 636.385559,274.157990 638.019531,274.376068 
	C647.657227,275.662292 657.316101,276.789917 667.258728,278.006500 
	C667.764526,272.542633 668.090271,267.600098 668.715210,262.695740 
	C669.275635,258.297241 667.660278,256.233459 663.140991,255.967529 
	C659.849915,255.773880 656.598083,254.912033 652.451721,254.291229 
M696.555359,263.129883 
	C691.880615,261.980011 687.212952,260.800018 682.527649,259.695068 
	C680.650269,259.252319 678.668213,259.036591 678.429321,261.753540 
	C677.978455,266.881348 677.643982,272.019623 677.288025,277.155426 
	C677.154419,279.082306 677.986450,280.297089 679.957336,280.737030 
	C690.106140,283.002106 700.247559,285.300171 710.746643,287.666779 
	C710.987000,282.957123 709.196228,279.074249 708.798279,275.022003 
	C708.098938,267.900421 704.788147,263.675415 696.555359,263.129883 
M604.646179,401.852905 
	C608.827515,406.123138 612.954956,410.448425 617.227356,414.625488 
	C618.313843,415.687714 619.806213,417.521454 621.454712,416.026245 
	C623.394714,414.266663 621.597046,412.668701 620.311646,411.445587 
	C613.699219,405.153656 607.037170,398.913422 600.347534,392.703583 
	C599.433472,391.855072 598.405823,390.732025 596.592285,391.979797 
	C597.894226,396.071838 601.707581,398.188080 604.646179,401.852905 
M569.627258,290.468628 
	C569.639282,288.758759 569.012573,287.554382 567.131165,287.397552 
	C562.785950,287.035278 558.510193,287.705597 554.265869,288.457306 
	C552.327087,288.800659 552.499329,290.635376 552.513245,292.105927 
	C552.528259,293.688324 553.459351,294.567352 555.031555,294.579346 
	C558.848328,294.608490 562.669189,294.668030 566.481140,294.523346 
	C568.382324,294.451202 569.409119,293.149414 569.627258,290.468628 
M629.871948,335.110809 
	C631.210938,332.273285 630.892151,329.280548 630.544983,326.334991 
	C630.324646,324.465820 629.488708,322.692291 627.397949,322.337006 
	C624.988831,321.927551 623.794067,323.689148 622.960754,325.553497 
	C621.846680,328.046051 621.846619,330.726166 622.329285,333.349213 
	C623.178040,337.961884 625.578552,338.743988 629.871948,335.110809 
M695.827637,344.490234 
	C700.182190,343.030334 702.088745,336.454529 699.548096,331.765533 
	C698.880310,330.533020 698.097229,329.457397 696.563904,329.499786 
	C695.058594,329.541382 694.112061,330.575104 693.606140,331.846375 
	C691.865601,336.220062 691.073914,340.521912 695.827637,344.490234 
M537.172424,290.686218 
	C535.865601,292.911255 536.127991,294.951447 538.409790,296.193665 
	C540.439392,297.298645 542.296204,296.377289 543.634766,294.663239 
	C544.879578,293.069183 545.170410,291.240601 543.594971,289.737823 
	C541.562195,287.798767 539.454773,287.964539 537.172424,290.686218 
M586.720093,293.300720 
	C588.967407,291.524414 590.548401,289.491882 588.770813,286.554504 
	C587.953918,285.204590 586.696594,284.399597 584.989685,284.972198 
	C582.726196,285.731567 582.100281,287.526428 582.149597,289.671021 
	C582.207214,292.174286 583.135864,293.864227 586.720093,293.300720 
M663.550293,241.972672 
	C660.121765,238.870041 655.708435,239.604660 651.650330,238.927872 
	C655.116272,241.300522 659.249451,241.386795 663.550293,241.972672 
M682.419983,246.428940 
	C685.786438,247.044510 688.806396,249.342361 692.491089,248.426575 
	C689.091614,247.249527 685.820251,245.496857 682.419983,246.428940 
z"/>
<path fill="#000000" opacity="1.000000" stroke="none" 
	d="
M692.908752,805.979614 
	C655.930603,829.694702 616.430176,846.408691 573.617249,854.762024 
	C545.907166,860.168640 517.908875,861.553772 489.689667,859.516235 
	C446.057495,856.365906 405.085999,843.917114 366.273743,824.293579 
	C338.066010,810.031677 312.241882,792.068420 288.801392,770.781738 
	C287.446777,769.551514 286.178192,768.223450 284.908752,766.903198 
	C282.600677,764.502747 281.657440,761.685547 283.602783,758.778259 
	C285.492249,755.954468 288.548553,756.304749 291.320160,757.138123 
	C294.223206,758.010986 296.568878,759.931152 298.874359,761.892700 
	C309.299225,770.762573 320.409760,778.701172 332.202789,785.635193 
	C343.927399,792.529053 352.505096,792.015808 362.814301,783.122131 
	C367.612122,778.983032 372.592346,777.642517 378.718079,777.524353 
	C390.185730,777.303162 401.637299,776.293884 413.099213,775.681458 
	C414.921478,775.584106 416.214386,774.747192 417.453461,773.565613 
	C426.522156,764.916321 438.469452,763.472656 449.879883,760.776001 
	C452.601227,760.132874 455.094879,761.672424 457.342651,763.120239 
	C463.219727,766.905762 469.160675,770.613892 474.823547,774.702820 
	C478.652954,777.467834 481.631927,777.242126 484.862885,773.864685 
	C492.004425,766.399719 499.625610,759.436401 507.377899,752.601685 
	C510.834930,749.553833 513.887268,748.899719 517.431091,752.100769 
	C518.540649,753.103027 519.977234,753.806519 520.899536,754.942688 
	C527.389282,762.937622 535.954285,763.241272 545.317200,762.477112 
	C559.047668,761.356567 572.812439,759.529663 586.639465,761.655945 
	C592.276733,762.522766 597.773499,763.723633 602.646606,766.842651 
	C604.670349,768.137878 606.434631,769.822571 606.082153,772.483521 
	C605.758606,774.925659 603.722778,776.036865 601.671448,776.823975 
	C593.314758,780.030212 584.411865,780.169312 575.689392,781.258240 
	C563.819275,782.739990 551.845642,783.585083 540.360168,787.266296 
	C538.071106,788.000061 534.924561,788.219055 534.623352,791.253540 
	C534.335388,794.154663 537.148071,795.385071 539.242126,796.608154 
	C544.128906,799.462341 549.253540,801.917297 554.081787,804.862000 
	C560.773926,808.943481 560.866089,812.455627 554.352417,816.724487 
	C540.786560,825.614990 525.412476,830.072571 509.982025,834.287781 
	C500.072601,836.994812 490.095245,839.453125 479.510529,842.187622 
	C485.136932,844.353699 490.507294,844.204712 495.608093,844.425598 
	C524.002808,845.655457 552.125610,843.670593 579.553284,835.521790 
	C586.434570,833.477417 593.058960,830.776917 599.338318,827.282349 
	C600.933777,826.394531 602.499634,825.410583 603.937317,824.289062 
	C613.704285,816.669495 613.006165,810.513733 601.971680,805.270813 
	C594.564026,801.751160 586.341064,800.565369 578.971375,797.034180 
	C576.439514,795.821045 572.087402,795.150208 572.995972,791.520569 
	C573.822083,788.220703 577.897705,789.839539 580.538757,789.698303 
	C606.857605,788.289734 632.598022,792.426025 658.160461,798.071960 
	C666.698181,799.957642 674.748291,798.997986 682.133484,794.233032 
	C697.803345,784.122864 713.414368,773.921448 727.600220,761.729065 
	C730.292908,759.414734 733.197205,757.587891 736.974304,757.623901 
	C739.442688,757.647339 741.726807,757.948608 742.852295,760.468811 
	C743.957336,762.943237 742.978516,765.103394 741.187744,766.794067 
	C735.618225,772.052368 730.006714,777.268738 724.320007,782.399902 
	C714.654480,791.121399 704.325928,798.975586 692.908752,805.979614 
z"/>
<path fill="#000000" opacity="1.000000" stroke="none" 
	d="
M205.167877,717.771240 
	C205.133133,721.856079 206.516449,724.935730 208.423523,727.994629 
	C212.004654,733.738770 210.232635,737.496765 203.466202,738.417175 
	C195.233673,739.536926 186.969467,740.490540 178.691223,741.185974 
	C172.424973,741.712402 169.358093,737.246277 172.681778,731.925354 
	C176.263672,726.191101 176.932632,720.213928 176.795776,713.784302 
	C176.611481,705.125549 176.654694,696.460205 176.718872,687.798645 
	C176.742081,684.669312 175.722076,683.105286 172.317627,683.515381 
	C166.545013,684.210876 160.754959,684.770386 154.964828,685.307312 
	C152.345352,685.550293 150.358932,686.415894 150.366196,689.424866 
	C150.394318,701.071655 149.752228,712.726318 150.867035,724.361755 
	C151.197876,727.814758 152.917419,730.570435 154.557465,733.490295 
	C157.842209,739.338379 155.946960,743.212646 149.316559,744.122192 
	C140.760406,745.296082 132.169571,746.251221 123.572342,747.079407 
	C117.938988,747.622131 114.737778,743.172913 117.721558,738.425171 
	C122.054771,731.530334 122.633430,724.103088 122.627289,716.381409 
	C122.609146,693.559326 122.717285,670.736938 122.610474,647.915405 
	C122.573883,640.097473 121.992599,632.283447 121.770683,624.464417 
	C121.674980,621.092651 119.936584,618.535156 118.251633,615.830811 
	C114.869858,610.403137 116.588478,606.805969 122.981544,606.605835 
	C132.110168,606.320190 141.258194,606.426086 150.392105,606.628357 
	C155.356659,606.738220 157.901413,610.421143 154.932602,614.149780 
	C149.046356,621.542419 150.446854,629.809692 150.288589,637.988892 
	C150.169357,644.150330 150.538910,650.333374 150.157974,656.473816 
	C149.842667,661.556274 151.638641,662.793640 156.497284,662.015930 
	C161.896606,661.151550 167.425323,661.038147 172.906006,660.763672 
	C175.642654,660.626648 176.758270,659.394775 176.743866,656.716064 
	C176.684723,645.722229 176.676849,634.728088 176.686554,623.734009 
	C176.689117,620.842712 174.950180,618.793640 173.500046,616.568848 
	C169.587158,610.565613 171.523422,606.299438 178.473129,606.127808 
	C186.962906,605.918152 195.467361,605.903503 203.955246,606.152893 
	C209.737991,606.322815 212.235809,610.255127 209.025467,614.788513 
	C204.705414,620.888794 204.544571,627.756653 204.537506,634.400879 
	C204.508102,662.040955 203.478668,689.695740 205.167877,717.771240 
z"/>
<path fill="#000000" opacity="1.000000" stroke="none" 
	d="
M801.340454,700.992065 
	C801.131592,710.507507 801.019470,719.370422 806.438660,727.444946 
	C808.886353,731.092041 806.522461,734.899902 801.889282,735.094116 
	C794.575623,735.400818 787.234192,734.667480 780.100464,733.027222 
	C776.311646,732.156006 774.700073,728.502686 777.055603,725.640015 
	C783.737793,717.519409 782.180969,707.866455 782.470154,698.816711 
	C783.268005,673.839783 782.226257,648.847900 781.801025,623.862915 
	C781.748352,620.765076 780.982666,618.058105 779.332458,615.398804 
	C776.002869,610.033142 777.960938,606.305725 784.288635,606.060364 
	C790.445129,605.821716 796.617188,605.995178 802.782349,605.966858 
	C808.046570,605.942688 810.859253,608.504456 812.253235,613.641235 
	C815.604553,625.991150 819.362610,638.230774 822.965637,650.512146 
	C823.377014,651.914307 823.500061,653.455200 825.138245,654.950684 
	C828.048218,645.515747 830.824524,636.372925 833.695923,627.260132 
	C835.295898,622.182434 837.098633,617.168945 838.725708,612.099426 
	C839.909119,608.412048 842.483154,606.756897 846.209656,606.688293 
	C852.537598,606.571838 858.869751,606.328552 865.193665,606.456116 
	C870.593689,606.565063 872.958923,610.364197 870.045349,614.882935 
	C865.911377,621.294250 865.342529,628.233093 865.345825,635.446594 
	C865.356445,658.942444 865.309021,682.438354 865.370728,705.934021 
	C865.393799,714.735291 865.299438,723.474915 870.591248,731.382263 
	C873.232117,735.328491 870.731567,739.037354 865.935303,739.287048 
	C857.427063,739.730042 848.942444,739.027405 840.524353,737.970154 
	C834.827454,737.254639 832.650330,733.235352 835.854004,728.743530 
	C841.184326,721.269775 841.498901,712.876221 841.585205,704.419739 
	C841.727661,690.464050 841.922485,676.498108 840.952942,661.564392 
	C837.139099,675.599304 832.514954,688.430237 828.165344,701.352112 
	C827.106201,704.498657 825.908264,707.640808 824.369934,710.572876 
	C822.529297,714.080872 820.325195,714.084229 817.971985,710.819214 
	C815.885315,707.924255 815.196167,704.437195 814.092285,701.127686 
	C809.835144,688.364929 805.556824,675.609253 801.338806,663.007629 
	C801.338806,675.469666 801.338806,687.981628 801.340454,700.992065 
z"/>
<path fill="#000000" opacity="1.000000" stroke="none" 
	d="
M270.750183,720.713135 
	C273.027740,716.640747 273.639008,712.552734 273.641510,708.351868 
	C273.657104,682.188843 273.655396,656.025879 273.643707,629.862854 
	C273.641541,624.967651 272.715820,620.393982 270.039154,616.087708 
	C266.727386,610.759827 268.916260,606.633484 274.993164,606.719238 
	C286.796478,606.885803 298.602142,605.950989 310.409180,607.483337 
	C328.012451,609.767822 339.353882,619.209900 344.413818,636.132263 
	C349.873322,654.390930 350.380524,672.971252 345.600769,691.298767 
	C339.563263,714.449219 324.099701,726.894043 300.369507,729.321960 
	C292.761871,730.100342 285.151978,730.876038 277.564667,731.825012 
	C274.460602,732.213257 271.336548,732.534973 269.332947,729.759766 
	C267.124512,726.700806 268.616211,723.740234 270.750183,720.713135 
M299.251740,684.500000 
	C299.265778,690.990784 299.272217,697.481506 299.296143,703.972290 
	C299.317322,709.718079 300.561737,710.666016 306.148132,709.267639 
	C315.523071,706.921021 318.895050,699.504761 320.446045,691.245239 
	C323.444580,675.277039 323.559448,659.193726 320.484589,643.181763 
	C318.626862,633.507812 313.238953,627.559143 305.657837,626.463989 
	C300.552368,625.726501 298.211334,627.612183 298.493835,632.592285 
	C299.455902,649.552979 298.941193,666.531982 299.251740,684.500000 
z"/>
<path fill="#000000" opacity="1.000000" stroke="none" 
	d="
M535.846191,606.666748 
	C542.200317,605.609558 545.012512,608.792603 547.215515,613.778931 
	C553.741455,628.550171 559.742249,643.563599 567.158020,657.932861 
	C568.065918,659.692200 569.074280,661.399719 570.280518,663.571411 
	C572.046326,659.886047 571.839539,656.422119 571.505676,653.114746 
	C570.599121,644.135132 570.857971,635.137756 570.721375,626.147644 
	C570.658936,622.033569 569.753235,618.380005 567.301086,614.926819 
	C564.036133,610.329102 565.910461,606.871033 571.592224,606.725464 
	C577.420349,606.576172 583.260010,606.550842 589.086060,606.737610 
	C594.870117,606.922974 596.693237,609.930603 593.832886,614.915344 
	C591.150208,619.590576 590.285339,624.445862 590.304504,629.737366 
	C590.399841,656.064636 590.345154,682.392456 590.344849,708.720093 
	C590.344849,710.053101 590.540344,711.414978 590.333008,712.713562 
	C589.800720,716.047241 593.359741,721.264893 587.287720,722.175903 
	C576.563538,723.784851 571.771790,722.931091 568.993469,716.831055 
	C560.920654,699.105896 552.206421,681.672729 543.728577,664.132385 
	C542.961548,662.545471 542.084290,661.011841 540.405273,659.608459 
	C540.405273,664.358032 539.949951,669.161743 540.506836,673.845093 
	C541.456604,681.832947 541.247192,689.817627 541.171265,697.797668 
	C541.116638,703.528076 542.402222,708.533569 545.911804,713.171570 
	C549.733032,718.221375 547.765625,722.347961 541.472839,722.524231 
	C535.155029,722.701172 528.798523,722.617310 522.501709,722.113770 
	C516.104065,721.602295 514.521240,718.115173 518.008667,712.702759 
	C520.960754,708.121277 521.699585,702.986450 521.549744,697.867004 
	C520.833191,673.387512 520.750610,648.904114 520.649658,624.419373 
	C520.635254,620.932983 519.211853,618.045959 517.225586,615.244690 
	C514.026123,610.732483 515.795288,607.142029 521.374878,606.847717 
	C526.029724,606.602234 530.703430,606.713867 535.846191,606.666748 
z"/>
<path fill="#000000" opacity="1.000000" stroke="none" 
	d="
M434.868347,645.474060 
	C437.189209,658.796570 436.965454,671.648621 434.424957,684.520996 
	C429.406006,709.951599 415.423889,722.403259 389.297913,724.164917 
	C380.672607,724.746643 372.019073,724.928406 363.375824,725.214600 
	C360.714905,725.302734 357.853607,725.422729 356.426819,722.476379 
	C355.153656,719.847351 356.348602,717.381042 358.014771,715.570862 
	C361.740540,711.523071 362.146240,706.768860 362.110840,701.648376 
	C361.942871,677.342651 361.864594,653.036011 361.863770,628.729736 
	C361.863617,623.940674 361.300323,619.764832 357.639374,615.980835 
	C353.940460,612.157471 355.796021,607.002930 360.751495,606.857117 
	C374.035583,606.466248 387.363647,605.718079 400.564026,608.202087 
	C421.056519,612.058105 430.868042,625.807373 434.868347,645.474060 
M409.659271,649.774597 
	C409.142242,645.304932 408.272491,640.899292 406.645630,636.703796 
	C404.241211,630.503113 398.184021,626.369934 392.140076,626.255249 
	C388.834930,626.192566 387.285278,627.187073 387.300507,630.783264 
	C387.399109,654.089966 387.388733,677.397278 387.314819,700.704102 
	C387.304993,703.795837 388.589661,704.692566 391.502930,704.748291 
	C399.889374,704.908386 406.330505,699.378540 408.527008,688.851440 
	C411.158112,676.241577 411.486664,663.461731 409.659271,649.774597 
z"/>
<path fill="#000000" opacity="1.000000" stroke="none" 
	d="
M659.326904,603.709106 
	C669.606323,603.449158 679.034607,604.521484 687.095581,611.022278 
	C689.916077,613.296875 691.470459,615.899170 691.354736,619.546387 
	C691.186707,624.840881 692.757751,630.105042 691.397583,635.449158 
	C690.722473,638.101868 689.903931,640.571838 687.861877,642.436829 
	C684.578064,645.435791 680.836182,644.987183 678.775452,641.026184 
	C677.254822,638.103333 676.237061,634.886292 675.269714,631.716553 
	C674.085693,627.837097 671.812134,625.088257 667.713989,624.754761 
	C663.521667,624.413696 659.375366,624.911926 656.494507,628.694763 
	C653.273865,632.923828 651.738525,637.813110 650.944763,642.963745 
	C648.393677,659.516479 648.284302,676.069702 651.413452,692.556091 
	C652.219788,696.804321 653.653931,700.894348 656.897644,704.110962 
	C660.030396,707.217468 663.577637,707.485107 667.487366,706.097717 
	C671.358704,704.723938 671.964355,701.653687 671.821777,698.047668 
	C671.663818,694.055542 671.558105,690.046570 671.742188,686.059387 
	C671.991455,680.658997 671.139404,675.938416 666.613647,672.196289 
	C663.931091,669.978271 662.680054,666.627625 664.213379,663.158936 
	C665.679138,659.843018 668.976929,660.596741 671.708374,660.706299 
	C678.186829,660.966309 684.671875,661.278870 691.125610,661.878601 
	C698.273254,662.542786 700.445068,666.647827 696.863098,672.886841 
	C694.947266,676.223816 694.248718,679.591309 694.289795,683.352417 
	C694.395447,693.011292 694.280212,702.672424 694.338745,712.332153 
	C694.354736,714.969666 694.003784,717.378662 691.598999,718.893005 
	C677.804016,727.579224 655.880615,731.843323 640.418213,719.816956 
	C632.598389,713.734802 628.869446,705.154297 627.091553,695.900940 
	C623.194702,675.619080 623.229126,655.247681 627.725952,635.019287 
	C629.139893,628.658691 631.803101,622.776489 635.484619,617.294556 
	C641.125671,608.894836 649.218689,605.052429 659.326904,603.709106 
z"/>
<path fill="#000000" opacity="1.000000" stroke="none" 
	d="
M912.088440,696.037354 
	C909.148987,690.255127 904.795898,686.079285 900.651794,681.760742 
	C894.761902,675.622925 888.873169,669.460510 884.275146,662.283386 
	C875.341431,648.338501 875.176208,633.385132 881.761597,618.852234 
	C888.114624,604.832275 899.830444,603.371033 913.952637,605.111816 
	C918.254822,605.642090 922.213440,607.505371 926.234741,609.149658 
	C931.109741,611.143127 933.072998,614.727722 933.184875,619.613342 
	C933.322205,625.609192 933.356323,631.610046 933.274536,637.606506 
	C933.252319,639.232971 932.736633,640.875427 932.293091,642.467529 
	C931.780579,644.307251 930.816650,645.914795 928.708496,646.162170 
	C926.349487,646.438965 924.952454,644.915955 924.098267,643.019043 
	C923.076355,640.749634 922.372681,638.339294 921.442505,636.025696 
	C920.188904,632.907959 918.611755,629.982117 915.909241,627.837280 
	C913.066833,625.581421 910.021057,625.083008 906.575012,626.472595 
	C903.189087,627.837830 901.826355,630.510071 901.427856,633.822083 
	C900.608459,640.631470 903.396423,646.081238 907.864624,650.989624 
	C915.254333,659.107239 923.551453,666.394836 929.716431,675.635925 
	C940.009094,691.064331 942.629944,707.736572 936.635498,725.107117 
	C931.237671,740.748779 917.030518,747.720398 900.976929,743.841858 
	C897.763000,743.065369 894.654724,741.789490 891.564758,740.573730 
	C881.702576,736.693604 876.052307,730.274597 877.519165,718.808228 
	C878.273315,712.912781 876.783203,706.864502 877.670410,700.880981 
	C878.118164,697.861389 878.401733,694.478333 882.124939,693.965698 
	C885.887207,693.447754 887.208984,696.573486 888.162476,699.488831 
	C889.716736,704.241211 891.267090,708.992493 893.629944,713.412537 
	C895.451782,716.820374 897.603516,719.976990 901.336731,721.638733 
	C907.987305,724.599121 913.765564,721.656067 914.483948,714.475708 
	C915.096558,708.352478 915.174377,702.135437 912.088440,696.037354 
z"/>
<path fill="#000000" opacity="1.000000" stroke="none" 
	d="
M733.507812,729.559326 
	C725.396667,729.254028 717.771057,728.646912 710.225769,727.329468 
	C704.433228,726.317993 702.836365,722.179993 706.718018,717.643982 
	C709.385803,714.526489 710.586670,711.120728 710.689697,707.191895 
	C711.405334,679.891174 710.974426,652.589783 710.666870,625.289185 
	C710.650391,623.825317 710.434753,622.223755 709.806335,620.932251 
	C707.740662,616.686890 705.719116,612.492310 707.499268,606.874084 
	C708.849854,605.611877 711.449036,605.823120 713.885193,605.810730 
	C727.870789,605.739380 741.857727,605.674316 755.842529,605.799622 
	C764.662781,605.878601 766.379700,607.551147 766.938171,616.145020 
	C767.240173,620.792175 767.230530,625.460510 767.322876,630.119995 
	C767.371094,632.552856 766.929932,634.927063 764.527588,636.086121 
	C761.818848,637.392944 760.243347,635.305847 758.608093,633.633240 
	C753.731812,628.646179 747.961243,625.836853 740.823303,625.993103 
	C737.815613,626.059021 736.168213,626.881531 736.215515,630.267700 
	C736.327026,638.257690 736.243164,646.251038 736.176270,654.242554 
	C736.146851,657.759521 737.665283,659.160095 741.156677,658.297485 
	C744.543945,657.460571 747.920593,656.548767 751.346130,655.905396 
	C756.739685,654.892639 759.231201,656.961609 759.311462,662.429810 
	C759.372498,666.590881 759.395264,670.759827 759.210815,674.915283 
	C758.983459,680.035522 756.152283,682.063293 751.213013,680.762390 
	C747.689392,679.834412 744.325745,678.446228 740.660400,677.866882 
	C737.129395,677.308777 736.199463,678.617859 736.183960,681.789429 
	C736.144226,689.947021 736.055481,698.106995 735.782410,706.259216 
	C735.693970,708.900391 736.852722,709.725403 739.178589,710.107849 
	C746.135925,711.251709 751.881287,708.593323 757.217712,704.585327 
	C758.275269,703.791016 759.151428,702.758057 760.133423,701.859436 
	C761.960022,700.187805 763.688599,697.979126 766.571899,699.120667 
	C769.727966,700.370056 769.366272,703.306458 769.342163,705.966614 
	C769.295349,711.127625 769.370850,716.296265 769.109131,721.447205 
	C768.737854,728.753540 766.564758,730.939270 759.326050,731.244080 
	C750.827698,731.601929 742.386108,730.684998 733.507812,729.559326 
z"/>
<path fill="#000000" opacity="1.000000" stroke="none" 
	d="
M475.999695,605.794067 
	C483.814056,605.999329 491.144745,605.411804 498.441376,606.597229 
	C502.601257,607.273071 504.808472,609.158386 505.538025,613.555969 
	C506.394287,618.717407 506.316193,623.835266 506.200745,628.983215 
	C506.152161,631.147949 505.814148,633.531677 503.624908,634.604858 
	C501.252045,635.767944 499.490753,633.938477 497.916565,632.545593 
	C492.560120,627.806030 486.601257,625.194763 479.235931,625.926514 
	C475.683197,626.279419 474.225403,627.626221 474.312958,631.211731 
	C474.475494,637.870667 474.489777,644.538635 474.336670,651.197632 
	C474.254456,654.772705 475.863403,655.680847 479.174042,655.780884 
	C483.329468,655.906555 486.966400,654.198914 490.839355,653.347107 
	C496.124146,652.184753 498.915833,654.112793 499.206940,659.493164 
	C499.404449,663.143982 499.411072,666.835266 499.109100,670.475830 
	C498.640137,676.129761 495.983643,678.107239 490.396912,677.194031 
	C488.777618,676.929382 487.252960,676.132202 485.651581,675.703918 
	C476.758362,673.325500 474.351257,675.139832 474.348602,684.175293 
	C474.347137,689.172302 474.440338,694.171204 474.331299,699.165710 
	C474.262878,702.298767 475.472382,703.523926 478.711487,703.722839 
	C486.913116,704.226196 493.022827,700.189819 498.833740,695.232117 
	C500.805359,693.549927 502.577057,690.933899 505.667328,692.318542 
	C508.926636,693.778870 508.386780,696.985779 508.307312,699.766907 
	C508.164795,704.755981 507.436188,709.682861 506.478424,714.583923 
	C505.680908,718.665405 503.523621,720.794678 499.224915,721.540039 
	C491.087769,722.951050 482.944916,722.109863 474.811493,722.286987 
	C466.653900,722.464600 458.488617,722.331970 450.327209,722.268860 
	C447.609100,722.247864 444.860046,721.949036 443.601227,718.995422 
	C442.432404,716.253113 443.897766,714.149841 445.709167,712.309021 
	C448.733429,709.235657 449.619476,705.401123 449.625732,701.320862 
	C449.664032,676.335754 449.668121,651.350586 449.619446,626.365601 
	C449.611511,622.300964 448.441498,618.538940 446.121307,615.105042 
	C442.278229,609.417175 443.583588,606.504944 450.524139,606.155823 
	C458.834351,605.737915 467.173248,605.890625 475.999695,605.794067 
z"/>
<path fill="#000000" opacity="1.000000" stroke="none" 
	d="
M225.218323,619.945435 
	C224.463898,618.575928 223.846130,617.586487 223.301193,616.558533 
	C219.755157,609.869324 221.800522,606.444885 229.358917,606.478027 
	C236.681335,606.510071 244.005432,606.523254 251.325104,606.698486 
	C256.576141,606.824219 258.672150,609.947998 256.210205,614.652954 
	C252.914139,620.951904 252.245819,627.532471 252.296906,634.449219 
	C252.487473,660.237610 251.991867,686.031555 253.162277,711.811646 
	C253.347015,715.880798 254.082520,719.627686 255.957062,723.292114 
	C259.441376,730.103516 257.209686,733.769226 249.725800,734.347412 
	C242.609924,734.897278 235.523361,735.937012 228.401138,736.261230 
	C222.023041,736.551514 219.815216,733.079407 222.677155,727.322571 
	C225.732162,721.177490 226.722412,714.794189 226.697556,708.029968 
	C226.601517,681.899963 226.639542,655.769348 226.684769,629.639160 
	C226.690308,626.444641 226.427353,623.334412 225.218323,619.945435 
z"/>
<path fill="#000000" opacity="1.000000" stroke="none" 
	d="
M468.374207,274.499878 
	C483.908966,252.144638 507.897430,244.984711 532.583557,255.103088 
	C533.505737,255.481064 534.389709,255.951584 535.295593,256.370056 
	C539.001404,258.081970 541.754395,260.734192 539.845276,264.939667 
	C537.864380,269.303162 534.095764,267.193298 531.189758,265.912201 
	C516.565247,259.465057 502.467590,259.692932 489.008514,268.878235 
	C476.008179,277.750519 470.459076,290.154175 472.005188,305.733734 
	C472.427460,309.988525 473.243835,314.204254 473.875000,318.408997 
	C466.445343,320.749817 464.511139,319.775269 462.525879,312.694305 
	C458.750519,299.228638 461.647430,286.742706 468.374207,274.499878 
z"/>
<path fill="#000000" opacity="1.000000" stroke="none" 
	d="
M550.782471,201.886505 
	C552.796814,197.457214 554.814331,193.439026 556.502014,189.286789 
	C558.002197,185.595901 560.640991,184.388138 564.028564,185.898712 
	C567.450073,187.424454 566.677856,190.553268 565.552856,193.235214 
	C560.732666,204.725815 555.794495,216.166901 550.910156,227.630661 
	C549.477783,230.992554 548.110779,234.382492 546.659973,237.736298 
	C545.094727,241.354691 542.218384,242.212112 538.885437,240.692642 
	C535.511963,239.154694 535.244446,236.394943 536.725769,233.150192 
	C541.418396,222.871155 546.010864,212.546387 550.782471,201.886505 
z"/>
<path fill="#000000" opacity="1.000000" stroke="none" 
	d="
M452.687012,239.292892 
	C456.219208,242.364899 459.589386,245.095093 462.701782,248.092972 
	C464.890564,250.201172 466.110931,252.834305 463.584442,255.552109 
	C461.068634,258.258392 458.268463,257.941864 455.635773,255.672363 
	C443.914825,245.568420 432.182068,235.477249 420.555054,225.265869 
	C417.869720,222.907501 416.183533,219.707092 419.079865,216.544022 
	C422.004059,213.350540 424.860138,215.595810 427.338531,217.693314 
	C435.721863,224.788361 444.059662,231.937180 452.687012,239.292892 
z"/>
<path fill="#000000" opacity="1.000000" stroke="none" 
	d="
M480.668884,217.444397 
	C483.150543,222.566208 485.370178,227.398666 487.794006,232.126434 
	C489.431885,235.321182 490.042206,238.163437 486.148804,240.044571 
	C482.252228,241.927216 479.846405,240.110474 478.229309,236.586609 
	C473.311951,225.871002 468.377594,215.163177 463.462463,204.446533 
	C461.939148,201.125168 460.408905,197.805588 458.968079,194.448151 
	C457.549500,191.142548 456.045593,187.342575 460.365631,185.380798 
	C464.901642,183.320953 466.449036,187.495987 467.931366,190.528137 
	C472.235260,199.331985 476.321869,208.242065 480.668884,217.444397 
z"/>
<path fill="#000000" opacity="1.000000" stroke="none" 
	d="
M408.227783,273.963379 
	C404.983643,272.988342 402.128082,272.111816 399.247589,271.326965 
	C395.888397,270.411652 393.156586,268.916779 394.220032,264.799133 
	C395.338135,260.469879 398.807739,260.947174 401.909607,261.809784 
	C411.657288,264.520508 421.327087,267.510040 431.061523,270.269989 
	C435.846924,271.626770 440.673523,272.887299 445.545776,273.873993 
	C449.834717,274.742584 452.330933,276.805817 451.211365,281.374298 
	C449.965881,286.456512 446.017456,284.529419 443.102936,283.757111 
	C431.561371,280.698822 420.097839,277.346039 408.227783,273.963379 
z"/>
<path fill="#000000" opacity="1.000000" stroke="none" 
	d="
M508.608337,179.965912 
	C510.392456,177.575500 512.425476,177.291092 514.616455,178.256073 
	C516.942017,179.280350 517.311218,181.385330 517.344177,183.675049 
	C517.556824,198.474548 517.812683,213.273438 518.039673,228.072739 
	C518.095947,231.745148 517.213379,234.951401 512.779602,235.016251 
	C508.220551,235.082977 507.609406,231.868561 507.628296,228.164642 
	C507.701294,213.857559 507.658478,199.549866 507.725830,185.242722 
	C507.733551,183.610153 508.163513,181.979553 508.608337,179.965912 
z"/>
<path fill="#000000" opacity="1.000000" stroke="none" 
	d="
M700.451904,500.461914 
	C699.196045,502.424072 698.049988,504.046173 696.252991,501.558472 
	C694.064209,498.528503 691.794373,495.513092 690.824463,491.373413 
	C696.203491,490.693054 700.929565,493.778748 707.330811,491.970886 
	C704.454102,495.497803 702.551392,497.830505 700.451904,500.461914 
z"/>
<path fill="#000000" opacity="1.000000" stroke="none" 
	d="
M700.753296,528.771851 
	C702.563965,529.191223 703.974548,529.584595 705.757935,530.081970 
	C704.014709,532.781311 701.956421,534.222717 699.156555,533.792053 
	C697.809937,533.584961 697.157776,531.993896 697.113708,530.651001 
	C697.035645,528.270508 698.992737,528.923340 700.753296,528.771851 
z"/>
</svg>